<?xml version="1.0" encoding="utf-8"?>
<svg id="Rubika" enable-background="new 0 0 100 100" version="1.1" viewBox="0 0 100 100" xml:space="preserve" xmlns="http://www.w3.org/2000/svg" xmlns:cc="http://creativecommons.org/ns#" xmlns:dc="http://purl.org/dc/elements/1.1/" xmlns:rdf="http://www.w3.org/1999/02/22-rdf-syntax-ns#"><title>Rubika</title>
<style type="text/css">
	.st0{fill:#B8CE01;}
	.st1{fill:#7DB425;}
	.st2{fill:#F6A925;}
	.st3{fill:#35AC9D;}
	.st4{fill:#59D6BD;}
	.st5{fill:#EF7414;}
	.st6{fill:#FFFFFF;}
	.st7{fill:#E74B50;}
	.st8{fill:#794387;}
	.st9{fill:#E4E4E4;}
	.st10{fill:#F1F1F1;}
	.st11{fill:#4C3683;}
	.st12{fill:#0F68A0;}
	.st13{fill:#49BDCA;}
</style>
<polygon class="st0" points="49.7,0 50,0 50.1,6.9 50,21.7 50,23.6 37.6,17.4 25.2,11.1 33.3,6.9 41.4,2.7 42.4,2.2 44.3,1.3 
	46.4,0.6 48,0.2 49.1,0 "/>
<polygon class="st1" points="50,0 50.6,0 51.2,0 52.4,0.2 53.5,0.5 54.6,0.9 56.3,1.5 58.4,2.6 59.4,3.1 67.2,7 74.9,11 62.4,17.4 
	49.9,23.7 49.9,17.8 50,5.9 "/>
<polygon class="st2" points="25.2,11.1 50,23.6 25,37 25,32.8 25,24.3 25.1,15.5 "/>
<polygon class="st3" points="74.9,11 75,11.1 75,22.9 75,34.6 75,36.2 75,37 50,23.7 58.3,19.5 "/>
<polygon class="st4" points="75,11.1 83.2,15.4 91.4,19.8 92.4,20.3 94.4,21.4 95.8,22.4 96.6,23.1 97.4,23.8 98,24.7 98.3,25.2 
	82.8,33 75,37 75,36.2 75,34.6 75,22.9 "/>
<polygon class="st5" points="9.4,19.3 19.9,13.8 25.2,11.1 25,37 17.3,33 1.7,25.2 2.1,24.7 2.8,23.8 3.7,22.9 4.6,22.2 6.1,21.1 
	8.3,19.9 "/>
<polygon class="st6" points="49.9,23.6 75,37 70.9,39 62.9,43 54.3,47.4 50,49.5 25,36.9 "/>
<polygon class="st7" points="0,35.6 0,34.2 0.1,31.6 0.3,29.6 0.5,28.3 0.9,27 1.4,25.8 1.7,25.2 17.3,33 25,37 12.5,43.6 0,50.2 
	"/>
<polygon class="st8" points="98.3,25.2 98.6,25.7 99,26.7 99.4,27.7 99.7,28.8 99.9,30.4 100,32.6 100,33.7 100,50.3 75,37 82.8,33 
	"/>
<polygon class="st9" points="25,37 37.5,43.3 50,49.6 50,56.2 50,69.2 50,73.4 50,75.5 37.5,69.2 25,62.9 25,62.9 "/>
<polygon class="st8" points="0,50.2 12.5,43.6 25,37 25,62.8 24.1,62.4 22.2,61.5 21.3,61.1 10.7,55.7 0,50.3 "/>
<polygon class="st10" points="75,37 75,52.9 75,55.4 75,60.4 75,62.9 58.3,71.3 50,75.5 50,73.4 50,69.2 50,56.2 50,49.6 "/>
<polygon class="st11" points="75,37 87.5,43.6 100,50.3 83.3,58.7 75,62.9 75,62.9 75,60.4 75,55.4 75,52.9 "/>
<polygon class="st11" points="0,50.3 10.7,55.7 21.3,61.1 22.2,61.5 24.1,62.4 25,62.8 25,62.9 2,75.2 1.7,74.7 1.3,73.8 0.8,72.4 
	0.5,71.4 0.3,70.6 0.1,69 0,66.5 0,64.8 "/>
<polygon class="st7" points="100,50.3 100,57.9 100,65.6 100,66.8 99.9,69.3 99.7,71.1 99.4,72.4 98.9,73.5 98.4,74.6 98,75.2 
	83,67.2 75,62.9 83.3,58.7 "/>
<polygon class="st12" points="2,75.1 13.5,69 25,62.9 25,75.8 25,88.8 16.8,84.5 8.7,80.3 7.8,79.8 5.9,78.7 4.6,77.8 3.8,77.1 
	3,76.4 2.3,75.5 "/>
<polygon class="st13" points="25,62.9 37.5,69.2 50,75.5 33.3,84.3 25,88.7 25,75.8 "/>
<polygon class="st2" points="74.9,63 75,62.9 75,75.8 75,88.8 75,88.8 65,83.5 55.1,78.2 51.7,76.4 50,75.5 58.3,71.3 "/>
<polygon class="st5" points="75,62.9 75,62.9 83.4,67.4 98,75.2 97.6,75.7 96.7,76.7 95.6,77.7 94.5,78.5 93.9,78.8 93,79.4 
	91,80.5 88,82.1 86.1,83.1 80.6,86 75,88.8 75,75.8 "/>
<polygon class="st1" points="50,75.5 50,100 49.2,99.9 47.6,99.6 46,99.2 44.5,98.6 43.8,98.3 34.4,93.6 25,88.8 37.5,82.2 "/>
<polygon class="st0" points="50,75.5 51.7,76.4 55.1,78.2 65,83.5 75,88.8 65.3,93.7 55.7,98.6 55,98.9 53.8,99.4 52.4,99.7 
	51.1,100 50.4,100 49.9,100 "/>
<metadata><rdf:RDF><cc:Work rdf:about=""><dc:title>Rubika</dc:title></cc:Work></rdf:RDF></metadata></svg>
