<?xml version="1.0" encoding="UTF-8"?>
<svg id="Soroush" enable-background="new 0 0 100 100" version="1.1" viewBox="0 0 100 100" xml:space="preserve" xmlns="http://www.w3.org/2000/svg" xmlns:cc="http://creativecommons.org/ns#" xmlns:dc="http://purl.org/dc/elements/1.1/" xmlns:rdf="http://www.w3.org/1999/02/22-rdf-syntax-ns#"><title>Soroush</title>
<style type="text/css">
	.st0{fill:#FFFFFF;}
	.st1{fill:#165AA4;}
</style>
<path id="Background" class="st0" d="m48.1 0h0.7l1.2 0.2 1.5-0.2h0.5v0.2h0.2l2.3 0.2 4.6 0.5 2.3 0.5 2.2 0.6 4.3 1.2 4 1.8 3.7 2 3.6 2.5 3.4 2.7 4.6 4.4 2.8 3.6 2.1 2.8 3.4 6 2.5 6.6 1.4 6.7 0.4 3.6 0.2 4.1-0.7 8.3-0.9 4.1-1.1 4.1-3.3 7.6-2.3 3.6-0.2 0.2v0.4l0.5 5 0.7 5.2 0.5 5 0.8 4.5v0.4l-0.2 0.2-0.4-0.2-18.2-5h-0.7l-0.5 0.2-2.8 1.6-6.2 2.5-6.6 1.6-6.7 0.7h-3.4l-3.7-0.5-7.3-1.2-3.6-0.9-3.4-1.2-6-3-5.6-4.2-5-4.6-2.3-2.7-2.5-3-3.9-6.6-2.7-7.1-1.8-7.5-0.4-3.9v-0.9l-0.1-1v-3.4l0.2-0.2v-0.1l0.4-2.8 0.7-5.5 0.7-2.9 1-3.4 2.7-6.2 3.4-5.7 4.3-5.3 2.5-2.5 3.4-3 7.1-4.8 7.5-3.2 8.3-2.1 4.2-0.6 0.9 0.2 0.8-0.2z"/>
<polyline id="Content1" class="st1" points="49.4 3.4 44.8 3.6 42.5 4.1 40.1 4.4 35.9 5.7 31.6 7.1 27.5 9.1 25.6 10.3 23.6 11.5 19.9 14.4 18.1 16 16.3 17.8 13.1 21.3 10.5 25 8.2 29.3 7.1 31.4 6 34.1 4.3 39.6 3.4 45.1 3 50.8 3.4 53.6 3.6 56.7 5 62.7 5.9 65.5 6.7 68.4 9.6 73.5 11.5 76 13 77.4 16.2 79.8 19.7 81.3 23.8 81.7 25.9 81.3 27.7 81 31.1 79.8 34.1 77.6 36.6 75 37.5 73.2 38.2 71.8 39.1 69.1 39.3 66.4 38.9 63.4 38.7 62 37.1 57.4 35.5 52.6 33.9 48.3 31.8 40.1 31.3 35.9 31.1 33 31.3 27.5 31.6 24.7 31.8 22.9 33 19 33.9 17.2 34.5 15.8 35.7 13.3 37.5 11 39.8 8.9 40.9 8.2 42.5 7.1 45.8 5.5 50.4 4.1 54 3.6"/>
<polyline id="Content2" class="st1" points="68.9 7.6 67.1 7.3 65 7.3 64.1 7.6 62.7 8 60.4 9.4 58.4 11 57.4 13.1 56.7 15.5 56.5 17.9 56.8 20.2 57.9 22.4 58.6 23.3 59.9 24.9 61.5 26.1 63.9 28.1 68.7 32.3 71 34.5 72.8 36.6 76.2 41 77.6 43.5 79 46.7 80.8 53.5 81.3 56.8 81.5 59.5 81.3 64.8 80.8 67.3 80.3 69.4 78.9 73.7 76.9 77.4 74.4 81 73.2 82.9 72.1 84.2 69.4 86.7 68 87.7 65.9 89 61.6 91.1 57.4 92.7 52.6 93.8 50.3 94.1 47.6 94.5 42.1 94.5 39.3 94 37.3 93.6 33.6 92.7 28.2 90.6 24.7 88.6 23.1 87.7 21.1 86.7 21.5 86.9 21.5 87.2 24.3 89.2 30.2 92.5 36.4 94.8 43 96.4 46.4 96.8 49.4 97 55.1 96.8 57.9 96.3 61.8 95.4 69.4 92.5 73 90.8 73.4 90.6 73.7 90.6 79.4 92.2 84.9 93.4 90.1 95 90.4 95 90.6 95 90.6 94.7 90.4 93.4 90.2 92 89.9 88.5 89.3 84.5 88.8 81 88.5 77.3 88.5 76.9 88.6 76.6 90.4 73.7 93.3 67.7 95.4 61.6 96.4 55.2 96.6 51.9 96.8 49 96.4 43.7 95.9 41 95.2 37.8 93.1 31.6 91.7 28.6 89.7 25.2 84.9 18.7 82.1 15.8 79.8 13.7 75 10.1 72.1 8.7 71 8.3 71 8.3 71 8.3 70 7.8 68.9 7.6"/>
<metadata><rdf:RDF><cc:Work rdf:about=""><dc:title>Soroush</dc:title></cc:Work></rdf:RDF></metadata></svg>
