<?xml version="1.0" encoding="UTF-8"?>
<svg id="Bale" enable-background="new 0 0 100 100" version="1.1" viewBox="0 0 100 100" xml:space="preserve" xmlns="http://www.w3.org/2000/svg" xmlns:cc="http://creativecommons.org/ns#" xmlns:dc="http://purl.org/dc/elements/1.1/" xmlns:rdf="http://www.w3.org/1999/02/22-rdf-syntax-ns#"><title>Bale</title>
<style type="text/css">
	.st0{fill-rule:evenodd;clip-rule:evenodd;fill:#3D8E94;}
	.st1{fill:#FFFFFF;}
</style>
<path id="Background" class="st0" d="m50 0.1-4 0.2-7.8 1.2-7.2 2.3-6.7 3.4-3.1 2.1-12.3-8.3-0.7-0.4-1.6-0.5-1.5-0.1-1.4 0.3-1.3 0.7-1.1 1-0.8 1.4-0.5 1.5v46.8l0.2 2.6 0.6 4.9 1.1 4.7 1.5 4.6 1.9 4.3 2.4 4.1 2.7 3.8 3 3.6 3.4 3.3 3.7 3 3.9 2.6 4.2 2.2 4.4 1.8 4.6 1.4 4.7 1 5 0.5 2.7-0.1 2.6-0.1 5-0.5 4.8-1 4.6-1.4 4.5-1.8 4.2-2.3 4-2.7 3.8-3 3.4-3.4 3-3.7 2.7-4 2.3-4.2 2-4.5 1.4-4.7 1-4.9 0.5-5 0.2-2.8-0.1-2.6-0.5-5-1-4.9-1.4-4.7-1.8-4.5-2.3-4.2-2.7-4-3-3.7-3.6-3.4-3.7-3-4-2.7-4.2-2.3-4.5-1.8-4.7-1.4-4.9-1-5-0.5-2.6-0.2z"/>
<path id="Content" class="st1" d="m79.5 29.6-0.8-0.7-1.6-1-2.7-1h-3.8l-2.7 1-1.7 1-0.7 0.7-22.2 22-8.5-8.6-0.7-0.7-1.7-1.1-2.7-1h-3.8l-2.7 1-1.7 1.1-0.7 0.6-0.8 0.8-1.1 1.6-1 2.7-0.1 3.8 1 2.7 1 1.7 0.6 0.8 16 15.8 0.8 0.7 1.6 1 2.6 1h3.8l2.7-1 1.6-1 0.7-0.7 6.9-7 22.8-22.8 1.2-1.7 1-2.7 0.1-3.8-1-2.6-1-1.7-0.7-0.9z"/>
<metadata><rdf:RDF><cc:Work rdf:about=""><dc:title>Bale</dc:title></cc:Work></rdf:RDF></metadata></svg>
